<svg width="60" height="60" viewBox="0 0 60 60" fill="none" xmlns="http://www.w3.org/2000/svg">
<path d="M8.4375 0.257816C7.54688 0.59766 6.5625 1.59375 6.23438 2.4961L5.97656 3.17579V30V56.8242L6.23438 57.5039C6.57422 58.4297 7.54688 59.4023 8.47266 59.7422L9.15234 60H30H50.8477L51.5273 59.7422C52.4531 59.4023 53.4258 58.4297 53.7656 57.5039L54.0234 56.8242L54 35.9414L53.9648 15.0586L53.5781 14.3438C53.0391 13.3477 40.4414 0.773441 39.5508 0.339848L38.9648 0.0585976L24.0234 0.0351601L9.08203 0.0117226L8.4375 0.257816ZM37.9922 7.58204L38.0273 13.0664L38.332 13.7227C38.7305 14.5664 39.457 15.293 40.3008 15.6914L40.957 15.9961L46.4414 16.0313L51.9141 16.0664L51.8906 36.3867L51.8555 56.707L51.6094 57.0352C51.4805 57.2109 51.1875 57.4805 50.9766 57.6328L50.5898 57.8906H30H9.41016L9.02344 57.6211C8.8125 57.4805 8.51953 57.2109 8.39062 57.0352L8.14453 56.707V30V3.29297L8.39062 2.96485C8.51953 2.78907 8.8125 2.51954 9.02344 2.36719L9.41016 2.10938H23.6836H37.957L37.9922 7.58204ZM46.0312 13.9219L41.6602 13.9453L41.1328 13.6758C40.793 13.5 40.5117 13.2422 40.3477 12.9375C40.0898 12.4922 40.0781 12.4219 40.0781 8.02735V3.57422L45.2344 8.73047L50.3906 13.8867L46.0312 13.9219Z" fill="url(#paint0_linear_37_588)"/>
<path d="M14.5783 24.0234C13.9221 24.2813 13.7346 25.2305 14.2385 25.7227L14.5197 26.0156H30.0002H45.4807L45.7619 25.7227C46.1486 25.3477 46.1486 24.7383 45.7736 24.293L45.4924 23.9648L30.1525 23.9414C21.6682 23.9297 14.7072 23.9648 14.5783 24.0234Z" fill="url(#paint1_linear_37_588)"/>
<path d="M14.2368 32.2852C13.8501 32.6602 13.8501 33.2695 14.2251 33.7148L14.5064 34.043H29.9986H45.4907L45.772 33.7148C46.147 33.2695 46.147 32.6602 45.7603 32.2852L45.479 31.9922H29.9986H14.5181L14.2368 32.2852Z" fill="url(#paint2_linear_37_588)"/>
<path d="M14.4009 40.1133C13.8501 40.5352 13.8032 41.25 14.2837 41.7305L14.6235 42.0703H29.9985H45.3735L45.7134 41.7305C46.1939 41.25 46.147 40.5352 45.5962 40.1133C45.3267 39.9023 14.6704 39.9023 14.4009 40.1133Z" fill="url(#paint3_linear_37_588)"/>
<path d="M14.2837 48.2695C13.8032 48.75 13.8501 49.4648 14.4009 49.8867C14.5415 50.0039 16.9907 50.0273 24.9829 50.0391H35.3774L35.7056 49.7578C36.1274 49.3945 36.1626 48.6445 35.7642 48.2578L35.4946 47.9883L25.0649 47.9531L14.6353 47.9297L14.2837 48.2695Z" fill="url(#paint4_linear_37_588)"/>
<defs>
<linearGradient id="paint0_linear_37_588" x1="5.97656" y1="30.0059" x2="54.0234" y2="30.0059" gradientUnits="userSpaceOnUse">
<stop stop-color="#34913B"/>
<stop offset="1" stop-color="#4BA852"/>
</linearGradient>
<linearGradient id="paint1_linear_37_588" x1="13.9512" y1="24.9774" x2="46.0534" y2="24.9774" gradientUnits="userSpaceOnUse">
<stop stop-color="#34913B"/>
<stop offset="1" stop-color="#4BA852"/>
</linearGradient>
<linearGradient id="paint2_linear_37_588" x1="13.9453" y1="33.0176" x2="46.0518" y2="33.0176" gradientUnits="userSpaceOnUse">
<stop stop-color="#34913B"/>
<stop offset="1" stop-color="#4BA852"/>
</linearGradient>
<linearGradient id="paint3_linear_37_588" x1="13.9531" y1="41.0127" x2="46.044" y2="41.0127" gradientUnits="userSpaceOnUse">
<stop stop-color="#34913B"/>
<stop offset="1" stop-color="#4BA852"/>
</linearGradient>
<linearGradient id="paint4_linear_37_588" x1="13.9531" y1="48.9844" x2="36.0435" y2="48.9844" gradientUnits="userSpaceOnUse">
<stop stop-color="#34913B"/>
<stop offset="1" stop-color="#4BA852"/>
</linearGradient>
</defs>
</svg>
