<svg width="197" height="32" viewBox="0 0 197 32" fill="none" xmlns="http://www.w3.org/2000/svg">
<g clip-path="url(#clip0_25_195)">
<path d="M3.91301 30.0559H0V4.84814H10.3897V8.44924H3.91301V30.0559Z" fill="black"/>
<path d="M27.3918 30.0559H23.4114L22.7367 25.5035H17.8792L17.2046 30.0559H13.6289L17.6093 4.84814H23.344L27.3918 30.0559ZM18.419 22.0383H22.1971L20.3079 9.26459L18.419 22.0383Z" fill="black"/>
<path d="M39.1297 11.0323C39.1297 9.8772 38.9273 9.1298 38.5899 8.72212C38.2526 8.31446 37.7129 8.11062 37.1056 8.11062C36.4985 8.11062 35.9587 8.31446 35.6214 8.65418C35.2841 8.99391 35.0817 9.67337 35.0817 10.5567V13.2744H31.3711V10.8284C31.3711 8.79008 31.8434 7.22733 32.8554 6.14021C33.8673 5.05309 35.2841 4.50952 37.2406 4.50952C39.1972 4.50952 40.6138 5.05309 41.6259 6.14021C42.6379 7.22733 43.1101 8.79008 43.1101 10.8284V11.5079C43.1101 14.2256 42.1656 15.9243 40.3441 16.6717C41.356 17.0794 42.0306 17.7589 42.5029 18.6421C42.9078 19.5254 43.1101 20.6125 43.1101 21.9035V24.0099C43.1101 26.0482 42.6379 27.6109 41.6259 28.6981C40.6138 29.7852 39.1972 30.3287 37.2406 30.3287C35.2841 30.3287 33.8673 29.7852 32.8554 28.6981C31.8434 27.6109 31.3711 26.0482 31.3711 24.0099V20.8164H35.0817V24.2136C35.0817 25.097 35.2841 25.7764 35.6214 26.1161C35.9587 26.4559 36.4985 26.6596 37.1056 26.6596C37.7129 26.6596 38.2526 26.4559 38.5899 26.1161C38.9273 25.7084 39.1297 24.9611 39.1297 23.874V21.9035C39.1297 20.7484 38.9273 19.9331 38.5224 19.3895C38.1176 18.914 37.443 18.6421 36.566 18.6421H35.8913V15.0411H36.7009C37.443 15.0411 38.0503 14.8372 38.455 14.4974C38.8598 14.0899 39.0622 13.4103 39.0622 12.3912V11.0323H39.1297Z" fill="black"/>
<path d="M59.4382 20.6811V24.0105C59.4382 26.0488 58.9659 27.6116 57.9539 28.6987C56.942 29.7858 55.5252 30.3293 53.5687 30.3293C51.6121 30.3293 50.1955 29.7858 49.1834 28.6987C48.1714 27.6116 47.6992 26.0488 47.6992 24.0105V10.897C47.6992 8.85867 48.1714 7.29593 49.1834 6.20881C50.1955 5.12168 51.6121 4.57812 53.5687 4.57812C55.5252 4.57812 56.942 5.12168 57.9539 6.20881C58.9659 7.29593 59.4382 8.85867 59.4382 10.897V13.343H55.7276V10.6252C55.7276 9.74196 55.5252 9.06251 55.1879 8.72278C54.8506 8.38305 54.3108 8.17922 53.7037 8.17922C53.0964 8.17922 52.5567 8.38305 52.2194 8.72278C51.882 9.06251 51.6796 9.74196 51.6796 10.6252V24.2142C51.6796 25.0976 51.882 25.777 52.2194 26.1168C52.5567 26.4565 53.0964 26.6603 53.7037 26.6603C54.3108 26.6603 54.8506 26.4565 55.1879 26.1168C55.5252 25.777 55.7276 25.0976 55.7276 24.2142V20.6132H59.4382V20.6811Z" fill="black"/>
<path d="M63.3496 4.84814H75.4936V8.44924H71.3781V30.0559H67.4651V8.44924H63.3496V4.84814Z" fill="black"/>
<path d="M85.5462 4.84814C87.5027 4.84814 88.9869 5.39171 89.9315 6.41089C90.876 7.49801 91.3482 8.99281 91.3482 11.0312V14.2925C91.3482 16.3309 90.876 17.8936 89.9315 18.9129C88.9869 20 87.5027 20.4755 85.5462 20.4755H83.6572V29.92H79.7441V4.84814H85.5462ZM83.7247 8.44924V17.0103H85.6136C86.2209 17.0103 86.6931 16.8744 87.0304 16.5348C87.3678 16.195 87.5027 15.5835 87.5027 14.6323V10.8273C87.5027 9.94404 87.3678 9.26459 87.0304 8.92486C86.6931 8.58513 86.2209 8.44924 85.6136 8.44924H83.7247Z" fill="black"/>
<path d="M95.3965 10.897C95.3965 8.85867 95.9363 7.29593 96.9482 6.20881C97.9602 5.12168 99.4445 4.57812 101.401 4.57812C103.358 4.57812 104.842 5.12168 105.854 6.20881C106.866 7.29593 107.405 8.85867 107.405 10.897V24.0105C107.405 26.0488 106.866 27.6116 105.854 28.6987C104.842 29.7858 103.358 30.3293 101.401 30.3293C99.4445 30.3293 97.9602 29.7858 96.9482 28.6987C95.9363 27.6116 95.3965 26.0488 95.3965 24.0105V10.897ZM99.3095 24.2822C99.3095 25.1656 99.5119 25.845 99.8492 26.1847C100.187 26.5245 100.726 26.7282 101.333 26.7282C101.941 26.7282 102.48 26.5245 102.818 26.1847C103.155 25.845 103.357 25.1656 103.357 24.2822V10.6932C103.357 9.80991 103.155 9.13045 102.818 8.79073C102.48 8.451 101.941 8.24716 101.333 8.24716C100.726 8.24716 100.187 8.451 99.8492 8.79073C99.5119 9.13045 99.3095 9.80991 99.3095 10.6932V24.2822Z" fill="black"/>
<path d="M116.378 30.0561H112.33V4.84849H115.838V19.9323L119.886 4.84849H124.811V30.0561H121.303V11.7789L116.378 30.0561ZM122.922 0.5V3.42164H114.287V0.5H122.922Z" fill="black"/>
<path d="M134.054 30.0559H130.141V4.84814H142.554V30.0559H138.575V8.44924H134.121V30.0559H134.054Z" fill="black"/>
<path d="M153.688 4.84814C155.644 4.84814 157.128 5.39171 158.072 6.41089C159.016 7.49801 159.489 8.99281 159.489 11.0312V14.2925C159.489 16.3309 159.016 17.8936 158.072 18.9129C157.128 20 155.644 20.4755 153.688 20.4755H151.798V29.92H147.885V4.84814H153.688ZM151.865 8.44924V17.0103H153.755C154.362 17.0103 154.834 16.8744 155.171 16.5348C155.509 16.195 155.644 15.5835 155.644 14.6323V10.8273C155.644 9.94404 155.509 9.26459 155.171 8.92486C154.834 8.58513 154.362 8.44924 153.755 8.44924H151.865Z" fill="black"/>
<path d="M163.537 10.897C163.537 8.85867 164.078 7.29593 165.09 6.20881C166.101 5.12168 167.585 4.57812 169.542 4.57812C171.498 4.57812 172.983 5.12168 173.994 6.20881C175.006 7.29593 175.547 8.85867 175.547 10.897V24.0105C175.547 26.0488 175.006 27.6116 173.994 28.6987C172.983 29.7858 171.498 30.3293 169.542 30.3293C167.585 30.3293 166.101 29.7858 165.09 28.6987C164.078 27.6116 163.537 26.0488 163.537 24.0105V10.897ZM167.45 24.2822C167.45 25.1656 167.653 25.845 167.991 26.1847C168.328 26.5245 168.867 26.7282 169.474 26.7282C170.081 26.7282 170.622 26.5245 170.959 26.1847C171.296 25.845 171.498 25.1656 171.498 24.2822V10.6932C171.498 9.80991 171.296 9.13045 170.959 8.79073C170.622 8.451 170.081 8.24716 169.474 8.24716C168.867 8.24716 168.328 8.451 167.991 8.79073C167.653 9.13045 167.45 9.80991 167.45 10.6932V24.2822Z" fill="black"/>
<path d="M188.838 22.7178L191.535 4.84814H197.001V30.0559H193.29V11.9824L190.591 30.0559H186.881L183.979 12.2542V30.0559H180.539V4.84814H186.003L188.838 22.7178Z" fill="black"/>
</g>
<defs>
<clipPath id="clip0_25_195">
<rect width="197" height="31" fill="white" transform="translate(0 0.5)"/>
</clipPath>
</defs>
</svg>
