<svg width="197" height="26" viewBox="0 0 197 26" fill="none" xmlns="http://www.w3.org/2000/svg">
<g clip-path="url(#clip0_25_208)">
<path d="M105.807 18.7034C105.807 17.848 105.526 17.1825 104.966 16.7072C104.405 16.2319 103.377 15.7566 101.882 15.2339C98.7513 14.2833 96.4619 13.2376 94.9666 12.1444C93.4715 11.0513 92.7239 9.43535 92.7239 7.3441C92.7239 5.30037 93.6116 3.68441 95.3872 2.40114C97.1627 1.1654 99.4522 0.5 102.209 0.5C104.919 0.5 107.162 1.21293 108.89 2.59125C110.619 3.96958 111.46 5.77566 111.414 7.91444L111.367 8.0095H105.807C105.807 7.05893 105.48 6.25094 104.825 5.63308C104.171 5.0152 103.237 4.73003 102.069 4.73003C100.901 4.73003 100.013 4.96768 99.3587 5.49049C98.7047 6.01331 98.3776 6.63117 98.3776 7.3441C98.3776 8.05703 98.7047 8.62737 99.3587 9.05513C100.013 9.48289 101.274 10.0057 103.05 10.6711C105.853 11.4791 107.956 12.5247 109.358 13.713C110.759 14.9011 111.46 16.5647 111.46 18.6559C111.46 20.7947 110.619 22.4582 108.937 23.6464C107.255 24.8345 105.012 25.4525 102.256 25.4525C99.4522 25.4525 97.0693 24.7395 95.0134 23.3612C92.9576 21.9828 91.9763 19.9867 92.0231 17.3726L92.0698 17.2775H97.63C97.63 18.6559 98.0037 19.7015 98.7981 20.2718C99.5456 20.8898 100.714 21.1749 102.256 21.1749C103.424 21.1749 104.312 20.9373 104.919 20.4619C105.526 20.0817 105.807 19.4639 105.807 18.7034Z" fill="#141414"/>
<path d="M131.037 5.20522H124.543V25.1672H118.796V5.20522H112.348V0.880127H130.991V5.20522H131.037Z" fill="#141414"/>
<path d="M152.53 15.1864C152.53 18.1806 151.548 20.6521 149.633 22.6009C147.717 24.5495 145.195 25.5001 142.11 25.5001C138.98 25.5001 136.456 24.5495 134.541 22.6009C132.625 20.6521 131.645 18.1806 131.645 15.1864V10.8138C131.645 7.81946 132.625 5.34798 134.541 3.44685C136.456 1.49818 138.98 0.547607 142.11 0.547607C145.195 0.547607 147.717 1.49818 149.633 3.44685C151.548 5.39552 152.53 7.86699 152.53 10.8138V15.1864ZM146.829 10.7662C146.829 9.05521 146.409 7.62935 145.568 6.48866C144.727 5.39552 143.558 4.82518 142.064 4.82518C140.522 4.82518 139.354 5.39552 138.512 6.48866C137.719 7.58182 137.298 9.00768 137.298 10.7662V15.1864C137.298 16.945 137.719 18.3708 138.559 19.5114C139.4 20.6046 140.568 21.175 142.11 21.175C143.606 21.175 144.773 20.6046 145.568 19.5114C146.409 18.4184 146.783 16.945 146.783 15.1864V10.7662H146.829Z" fill="#141414"/>
<path d="M175.66 25.1198H169.96L160.942 9.62553L160.849 9.67307V25.1198H155.102V0.832764H160.849L169.866 16.3271L169.96 16.2795V0.832764H175.66V25.1198Z" fill="#141414"/>
<path d="M194.863 14.7586H185.238V20.7947H196.592V25.1198H179.49V0.832764H196.638V5.15786H185.238V10.386H194.863V14.7586Z" fill="#141414"/>
<path d="M19.7644 21.7927C18.9233 22.7909 17.8487 23.6464 16.2601 24.3593C14.6714 25.1198 12.6622 25.5 10.2793 25.5C7.24226 25.5 4.76587 24.5969 2.85018 22.7433C0.934484 20.8898 0 18.5133 0 15.5666V10.481C0 7.53422 0.934486 5.1578 2.75673 3.30418C4.62571 1.45057 7.00864 0.5 9.90554 0.5C13.0828 0.5 15.419 1.21293 17.0077 2.68632C18.5962 4.11217 19.484 6.10836 19.6709 8.62737L19.6241 8.72243H14.2509C14.064 7.43916 13.6435 6.48859 12.9893 5.82319C12.3353 5.1578 11.354 4.87262 10.0457 4.87262C8.73744 4.87262 7.66278 5.39543 6.82175 6.44107C6.02743 7.48669 5.60691 8.81749 5.60691 10.481V15.5666C5.60691 17.2776 6.02743 18.6084 6.82175 19.654C7.61605 20.6997 8.73744 21.1749 10.1859 21.1749C11.2138 21.1749 12.0548 21.0799 12.6622 20.9373C13.2696 20.7472 13.7369 20.557 14.064 20.2718V16.422H10.1859V12.6673H19.7644V21.7927Z" fill="#E34D1C"/>
<path d="M43.7334 15.1862C43.7334 18.1804 42.7522 20.652 40.8365 22.6006C38.9208 24.5492 36.3976 25.4998 33.3139 25.4998C30.1833 25.4998 27.6602 24.5492 25.7446 22.6006C23.8288 20.652 22.8477 18.1804 22.8477 15.1862V10.8135C22.8477 7.81922 23.8288 5.34774 25.7446 3.4466C27.6602 1.49793 30.1833 0.547363 33.3139 0.547363C36.3976 0.547363 38.9208 1.49793 40.8365 3.4466C42.7522 5.39527 43.7334 7.86675 43.7334 10.8135V15.1862ZM38.0331 10.766C38.0331 9.05496 37.6125 7.62911 36.7715 6.48842C35.9304 5.39527 34.7623 4.82493 33.2671 4.82493C31.7252 4.82493 30.5571 5.39527 29.716 6.48842C28.9218 7.58158 28.5012 9.00743 28.5012 10.766V15.1862C28.5012 16.9447 28.9218 18.3705 29.7628 19.5112C30.6039 20.6044 31.772 21.1747 33.3139 21.1747C34.8091 21.1747 35.9771 20.6044 36.7715 19.5112C37.6125 18.4181 37.9863 16.9447 37.9863 15.1862V10.766H38.0331Z" fill="#E34D1C"/>
<path d="M67.376 15.1862C67.376 18.1804 66.3948 20.652 64.4791 22.6006C62.5634 24.5492 60.0402 25.4998 56.9565 25.4998C53.8259 25.4998 51.3028 24.5492 49.3872 22.6006C47.4714 20.652 46.4902 18.1804 46.4902 15.1862V10.8135C46.4902 7.81922 47.4714 5.34774 49.3872 3.4466C51.3028 1.49793 53.8259 0.547363 56.9565 0.547363C60.0402 0.547363 62.5634 1.49793 64.4791 3.4466C66.3948 5.39527 67.376 7.86675 67.376 10.8135V15.1862ZM61.6756 10.766C61.6756 9.05496 61.255 7.62911 60.4141 6.48843C59.5731 5.39527 58.4049 4.82493 56.9097 4.82493C55.3678 4.82493 54.1997 5.39527 53.3587 6.48843C52.5644 7.58158 52.1439 9.00743 52.1439 10.766V15.1862C52.1439 16.9447 52.5644 18.3705 53.4054 19.5112C54.2465 20.6044 55.4146 21.1747 56.9565 21.1747C58.4516 21.1747 59.6197 20.6044 60.4141 19.5112C61.255 18.4181 61.6289 16.9447 61.6289 15.1862V10.766H61.6756Z" fill="#E34D1C"/>
<path d="M70.6934 25.1196V0.83252H79.571C82.468 0.83252 84.8975 1.78309 86.8133 3.63671C88.7757 5.49031 89.7568 7.86674 89.7568 10.8135V15.1861C89.7568 18.1329 88.7757 20.5094 86.8133 22.3629C84.8509 24.2165 82.4212 25.1671 79.571 25.1671H70.6934V25.1196ZM76.3938 5.20514V20.7945H79.1504C80.6924 20.7945 81.8605 20.2716 82.7015 19.2736C83.5425 18.2279 83.9631 16.8971 83.9631 15.1861V10.766C83.9631 9.10248 83.5425 7.72415 82.7015 6.72605C81.8605 5.68042 80.6457 5.20514 79.1504 5.20514H76.3938Z" fill="#E34D1C"/>
</g>
<defs>
<clipPath id="clip0_25_208">
<rect width="197" height="25" fill="white" transform="translate(0 0.5)"/>
</clipPath>
</defs>
</svg>
