<svg width="32" height="32" viewBox="0 0 32 32" fill="none" xmlns="http://www.w3.org/2000/svg">
<rect x="0.5" y="0.5" width="31" height="31" rx="15.5" stroke="black"/>
<path d="M20 7.5C21.3261 7.5 22.5979 8.02678 23.5355 8.96447C24.4732 9.90215 25 11.1739 25 12.5V20.5C25 21.8261 24.4732 23.0979 23.5355 24.0355C22.5979 24.9732 21.3261 25.5 20 25.5H12C10.6739 25.5 9.40215 24.9732 8.46447 24.0355C7.52678 23.0979 7 21.8261 7 20.5V12.5C7 11.1739 7.52678 9.90215 8.46447 8.96447C9.40215 8.02678 10.6739 7.5 12 7.5H20ZM16 12.5C14.9391 12.5 13.9217 12.9214 13.1716 13.6716C12.4214 14.4217 12 15.4391 12 16.5C12 17.5609 12.4214 18.5783 13.1716 19.3284C13.9217 20.0786 14.9391 20.5 16 20.5C17.0609 20.5 18.0783 20.0786 18.8284 19.3284C19.5786 18.5783 20 17.5609 20 16.5C20 15.4391 19.5786 14.4217 18.8284 13.6716C18.0783 12.9214 17.0609 12.5 16 12.5ZM16 14.5C16.5304 14.5 17.0391 14.7107 17.4142 15.0858C17.7893 15.4609 18 15.9696 18 16.5C18 17.0304 17.7893 17.5391 17.4142 17.9142C17.0391 18.2893 16.5304 18.5 16 18.5C15.4696 18.5 14.9609 18.2893 14.5858 17.9142C14.2107 17.5391 14 17.0304 14 16.5C14 15.9696 14.2107 15.4609 14.5858 15.0858C14.9609 14.7107 15.4696 14.5 16 14.5ZM20.5 11C20.2348 11 19.9804 11.1054 19.7929 11.2929C19.6054 11.4804 19.5 11.7348 19.5 12C19.5 12.2652 19.6054 12.5196 19.7929 12.7071C19.9804 12.8946 20.2348 13 20.5 13C20.7652 13 21.0196 12.8946 21.2071 12.7071C21.3946 12.5196 21.5 12.2652 21.5 12C21.5 11.7348 21.3946 11.4804 21.2071 11.2929C21.0196 11.1054 20.7652 11 20.5 11Z" fill="black"/>
</svg>
