<svg width="60" height="61" viewBox="0 0 60 61" fill="none" xmlns="http://www.w3.org/2000/svg">
<path d="M13.75 35.5C15.1908 35.4997 16.5875 35.9972 17.7036 36.9084C18.8198 37.8195 19.5868 39.0883 19.875 40.5H37.5V15.5H10C8.67392 15.5 7.40215 16.0268 6.46447 16.9645C5.52678 17.9021 5 19.1739 5 20.5V40.5H7.625C7.91316 39.0883 8.68023 37.8195 9.79637 36.9084C10.9125 35.9972 12.3092 35.4997 13.75 35.5ZM13.75 48C12.3092 48.0003 10.9125 47.5028 9.79637 46.5916C8.68023 45.6805 7.91316 44.4117 7.625 43H2.5V20.5C2.5 18.5109 3.29018 16.6032 4.6967 15.1967C6.10322 13.7902 8.01088 13 10 13H37.5C38.163 13 38.7989 13.2634 39.2678 13.7322C39.7366 14.2011 40 14.837 40 15.5V20.5H47.5L55 30.5V43H49.875C49.5881 44.4129 48.8216 45.6831 47.7053 46.5955C46.5891 47.5079 45.1917 48.0063 43.75 48.0063C42.3083 48.0063 40.9109 47.5079 39.7947 46.5955C38.6784 45.6831 37.9119 44.4129 37.625 43H19.875C19.5868 44.4117 18.8198 45.6805 17.7036 46.5916C16.5875 47.5028 15.1908 48.0003 13.75 48ZM13.75 38C12.7554 38 11.8016 38.3951 11.0983 39.0984C10.3951 39.8016 10 40.7554 10 41.75C10 42.7446 10.3951 43.6984 11.0983 44.4017C11.8016 45.1049 12.7554 45.5 13.75 45.5C14.7446 45.5 15.6984 45.1049 16.4017 44.4017C17.1049 43.6984 17.5 42.7446 17.5 41.75C17.5 40.7554 17.1049 39.8016 16.4017 39.0984C15.6984 38.3951 14.7446 38 13.75 38ZM43.75 35.5C45.1908 35.4997 46.5875 35.9972 47.7036 36.9084C48.8198 37.8195 49.5868 39.0883 49.875 40.5H52.5V31.3L51.9 30.5H40V36.75C41.05 35.975 42.35 35.5 43.75 35.5ZM43.75 38C42.7554 38 41.8016 38.3951 41.0984 39.0984C40.3951 39.8016 40 40.7554 40 41.75C40 42.7446 40.3951 43.6984 41.0984 44.4017C41.8016 45.1049 42.7554 45.5 43.75 45.5C44.7446 45.5 45.6984 45.1049 46.4016 44.4017C47.1049 43.6984 47.5 42.7446 47.5 41.75C47.5 40.7554 47.1049 39.8016 46.4016 39.0984C45.6984 38.3951 44.7446 38 43.75 38ZM40 23V28H50L46.25 23H40Z" fill="white"/>
</svg>
