<svg width="60" height="60" viewBox="0 0 60 60" fill="none" xmlns="http://www.w3.org/2000/svg">
<path d="M34.2777 0.14061C33.2582 0.51561 32.3676 1.42967 31.6644 2.80077C30.9027 4.27733 30.4926 5.8242 29.9183 9.31639L29.5902 11.3437L29.098 11.4258C28.5707 11.4961 16.5355 16.0547 16.1019 16.3359C15.6683 16.6289 15.1176 17.2383 14.8949 17.6836C14.2855 18.8906 2.42615 47.707 2.3324 48.2226C2.2035 48.9258 2.34412 49.8164 2.68397 50.4844C3.15272 51.3984 3.891 51.9023 6.12928 52.8281C7.266 53.2851 8.3324 53.6719 8.49647 53.6719C9.18787 53.6719 9.62147 52.6992 9.17615 52.1719C9.05897 52.0312 8.09803 51.5742 7.03162 51.1406C4.50037 50.0976 4.10194 49.7461 4.2074 48.5508C4.21912 48.4101 6.99647 41.6015 10.3832 33.4336C15.4222 21.2812 16.6058 18.5039 16.9105 18.2109C17.2152 17.9062 18.4105 17.414 23.1683 15.5976C26.4027 14.3672 29.1097 13.3594 29.1801 13.3594C29.2855 13.3594 29.2972 13.5703 29.2387 14.0859C29.1332 15.1289 29.098 15.2109 28.6762 15.3047C27.7269 15.5039 26.766 16.3242 26.473 17.1797C26.391 17.4375 26.3207 17.9531 26.3207 18.3398C26.3324 20.0156 27.598 21.2461 29.2972 21.2461C30.1762 21.2461 30.7035 21.0586 31.3363 20.5078C32.0277 19.8867 32.2855 19.3125 32.2855 18.2812C32.2855 17.25 32.0629 16.7109 31.3832 16.0664L30.9379 15.6328L31.0902 14.543L31.2308 13.4648L31.7582 13.8164C32.0512 14.0156 32.4027 14.3437 32.5551 14.5664C32.6957 14.789 34.0316 17.5781 35.5082 20.7773C37.5824 25.2656 38.2035 26.707 38.2035 27.0703C38.2035 27.4101 36.6683 31.2305 32.2152 41.9765C28.934 49.9219 26.1097 56.6953 25.9457 57.0351C25.6058 57.75 25.0668 58.1367 24.4105 58.1484C24.0824 58.1484 22.3715 57.4922 18.2699 55.793C15.1293 54.5039 12.516 53.4375 12.4457 53.4375C11.9652 53.4375 11.4847 53.9648 11.4847 54.4922C11.4847 55.0195 12.0238 55.289 17.6371 57.6094C22.8988 59.7773 23.3207 59.9297 24.1293 59.9765C24.6097 60 25.184 59.9648 25.4183 59.9062C26.1215 59.6836 26.9418 59.0976 27.2933 58.5351C27.4808 58.2422 28.1722 56.6836 28.8402 55.0781C29.5082 53.4726 30.0941 52.1953 30.141 52.2422C30.1879 52.289 30.7504 53.4609 31.4066 54.8437C33.059 58.3594 33.0472 58.3359 33.5512 58.793C34.3012 59.4609 34.9457 59.6953 36.0355 59.6953C36.7269 59.6836 37.1137 59.625 37.5004 59.4492C38.9769 58.7812 54.9027 51.3047 55.5121 51C56.4496 50.5195 56.848 50.168 57.223 49.4765C57.6449 48.7031 57.809 47.789 57.6683 47.0273C57.5277 46.289 48.0238 25.9219 47.6722 25.6289C47.1332 25.1719 46.1722 25.6172 46.1722 26.3203C46.1722 26.4844 48.3402 31.2422 50.9887 36.8906C56.2387 48.1055 56.098 47.7422 55.5238 48.5976C55.2426 49.0195 54.6801 49.3008 45.9144 53.414C40.7816 55.8047 36.434 57.8086 36.2465 57.8437C35.8012 57.9375 34.8988 57.5508 34.641 57.164C34.3832 56.7656 31.1371 49.793 31.1371 49.6406C31.1371 49.5703 33.141 44.707 35.5785 38.8476L40.0199 28.1836V27.0703V25.957L37.5824 20.707C36.2347 17.8125 35.1566 15.4219 35.1918 15.3984C35.2972 15.293 41.3207 17.2734 41.6722 17.5312C41.9418 17.7305 42.3285 18.4219 43.2894 20.4726C43.9808 21.9375 44.6254 23.2383 44.7308 23.3437C45.0004 23.6367 45.7504 23.625 46.0551 23.3203C46.184 23.1914 46.2894 22.9336 46.2894 22.7344C46.2894 22.2773 43.8519 17.0742 43.3715 16.5C43.1722 16.2539 42.7738 15.9258 42.5043 15.7734C42.2347 15.6211 40.3012 14.9531 38.2035 14.2969C36.1058 13.6406 34.3832 13.0898 34.3597 13.0664C34.348 13.0547 34.7816 12.3164 35.3324 11.414C36.5746 9.41014 37.8637 6.90233 38.2504 5.71873C38.6722 4.48827 38.7543 3.41014 38.5082 2.46092C38.2621 1.49998 37.8637 0.925766 37.1137 0.445297C36.5746 0.105453 36.4105 0.0585785 35.5668 0.035141C35.0512 0.0234222 34.4769 0.0702972 34.2777 0.14061ZM36.0238 2.01561C37.1605 2.51952 36.9965 4.26561 35.5902 7.06639C34.8168 8.58983 33.3285 11.1562 32.8363 11.8008L32.6371 12.0703L32.0863 11.8125C31.723 11.6484 31.5238 11.4844 31.5238 11.3437C31.5238 10.9101 32.2269 7.04295 32.5082 5.92967C33.2816 2.92967 34.6644 1.3828 36.0238 2.01561ZM30.0707 17.5078C30.5394 17.9765 30.598 18.4453 30.2347 18.8906C29.6488 19.6406 28.641 19.5234 28.2777 18.668C28.1137 18.2578 28.1137 18.1992 28.3129 17.8125C28.7347 17.0273 29.4613 16.8984 30.0707 17.5078Z" fill="url(#paint0_linear_37_597)"/>
<path d="M20.9181 26.9063C18.3985 27.2695 16.4767 28.1953 14.8595 29.8008C12.9728 31.6875 12.0235 34.0781 12.0353 36.8555C12.0704 41.3906 14.8829 45.0469 19.3126 46.3242C20.5079 46.6641 23.2032 46.6875 24.3751 46.3594C26.3673 45.8203 28.3595 44.5195 29.59 42.9727C30.2814 42.1055 30.9376 40.9453 30.9376 40.582C30.9376 40.2656 30.6095 39.8438 30.2579 39.7149C29.7423 39.5156 29.3439 39.7852 28.922 40.5938C28.4415 41.4844 26.7892 43.1836 25.8985 43.6875C24.8204 44.2852 23.5079 44.6719 22.2657 44.7305C20.7892 44.8125 19.711 44.5781 18.2814 43.875C15.9142 42.7031 14.3204 40.4297 13.9454 37.6875C13.5939 35.168 14.7423 32.3203 16.8165 30.5859C17.5079 30.0117 19.254 29.1445 20.1564 28.9336C21.047 28.7227 22.8634 28.7461 23.7892 28.9805C27.0704 29.8242 29.6017 32.7774 29.8478 36.0352C29.8712 36.4805 29.9532 36.9961 30.0235 37.1719C30.2462 37.7695 31.2071 37.875 31.5821 37.3477C31.9454 36.832 31.711 34.793 31.1134 33.2227C30.0118 30.2695 27.4454 27.9844 24.3634 27.1992C23.461 26.9648 21.586 26.8125 20.9181 26.9063Z" fill="url(#paint1_linear_37_597)"/>
<path d="M22.6406 31.6406C22.5352 31.7695 22.3828 32.0742 22.3125 32.3085C22.1953 32.7187 22.1602 32.7421 21.4453 32.8945C19.6758 33.246 18.8555 34.8632 19.6406 36.4335C20.0039 37.1601 20.4961 37.5117 21.5391 37.8046C22.3828 38.0273 22.7227 38.3671 22.5117 38.7773C22.3125 39.1406 22.043 39.1523 21.0938 38.8593C20.3086 38.6015 20.2148 38.5429 20.1328 38.2148C19.957 37.5468 19.1602 37.2773 18.6211 37.7226C18.3867 37.9101 18.3398 38.0507 18.3398 38.6484C18.3398 39.5742 18.7383 40.1015 19.6992 40.4531C19.7461 40.4765 19.7344 40.7343 19.6641 41.0273C19.4414 41.9765 19.7461 42.4687 20.543 42.4452C20.9883 42.4335 21.293 42.1406 21.4688 41.5663C21.5391 41.3202 21.668 41.0976 21.7266 41.0742C21.7969 41.0507 22.1602 40.9804 22.5469 40.8984C23.9648 40.6054 24.75 39.2577 24.3281 37.8281C24.0703 36.9374 23.5195 36.457 22.2891 36.0468C21.7734 35.871 21.3164 35.6484 21.2813 35.5546C21.1523 35.2265 21.2109 35.0507 21.4805 34.8632C21.7266 34.7109 21.832 34.7226 22.7109 34.9921C23.5664 35.2499 23.6719 35.3085 23.6719 35.5663C23.6719 35.9531 24.1055 36.3281 24.5508 36.3281C25.3594 36.3281 25.7461 35.4257 25.3594 34.4648C25.1719 34.0195 25.0313 33.8788 24.5742 33.6445C24.1055 33.4101 24.0117 33.3281 24.0703 33.1171C24.2813 32.3437 24.2813 32.0507 24.0234 31.7226C23.707 31.3242 22.9688 31.2773 22.6406 31.6406Z" fill="url(#paint2_linear_37_597)"/>
<path d="M44.4141 33.8671C44.2852 33.996 44.1797 34.2538 44.1797 34.453C44.1797 34.6757 45.2695 37.1484 47.0742 40.9804C49.7812 46.7226 50.0039 47.1562 50.3555 47.2968C50.9531 47.5546 51.6797 47.1093 51.6797 46.4882C51.6797 46.2187 45.9961 34.1249 45.7383 33.8437C45.4688 33.5507 44.7188 33.5624 44.4141 33.8671Z" fill="url(#paint3_linear_37_597)"/>
<path d="M40.4414 36.0468C40.3008 36.2226 40.1953 36.457 40.1953 36.5741C40.1953 36.8437 45.8789 48.9609 46.1367 49.2421C46.4062 49.5351 47.1562 49.5234 47.4609 49.2187C47.5898 49.0898 47.6953 48.832 47.6953 48.621C47.6953 48.2109 42.0469 36.1171 41.7539 35.8827C41.6484 35.8124 41.3555 35.7421 41.1211 35.7421C40.7812 35.7421 40.6289 35.8124 40.4414 36.0468Z" fill="url(#paint4_linear_37_597)"/>
<defs>
<linearGradient id="paint0_linear_37_597" x1="2.28516" y1="30.0086" x2="57.7176" y2="30.0086" gradientUnits="userSpaceOnUse">
<stop stop-color="#34913B"/>
<stop offset="1" stop-color="#4BA852"/>
</linearGradient>
<linearGradient id="paint1_linear_37_597" x1="12.0352" y1="36.7355" x2="31.755" y2="36.7355" gradientUnits="userSpaceOnUse">
<stop stop-color="#34913B"/>
<stop offset="1" stop-color="#4BA852"/>
</linearGradient>
<linearGradient id="paint2_linear_37_597" x1="18.3398" y1="36.92" x2="25.5104" y2="36.92" gradientUnits="userSpaceOnUse">
<stop stop-color="#34913B"/>
<stop offset="1" stop-color="#4BA852"/>
</linearGradient>
<linearGradient id="paint3_linear_37_597" x1="44.1797" y1="40.5012" x2="51.6797" y2="40.5012" gradientUnits="userSpaceOnUse">
<stop stop-color="#34913B"/>
<stop offset="1" stop-color="#4BA852"/>
</linearGradient>
<linearGradient id="paint4_linear_37_597" x1="40.1953" y1="42.5984" x2="47.6953" y2="42.5984" gradientUnits="userSpaceOnUse">
<stop stop-color="#34913B"/>
<stop offset="1" stop-color="#4BA852"/>
</linearGradient>
</defs>
</svg>
