<svg width="16" height="14" viewBox="0 0 16 14" fill="none" xmlns="http://www.w3.org/2000/svg">
<path d="M7.05942 1.10533C7.37733 0.224756 8.62267 0.224756 8.94058 1.10533L10.0067 4.05842C10.1498 4.45473 10.5259 4.71885 10.9473 4.71885H14.154C15.148 4.71885 15.5332 6.0118 14.7013 6.5558L12.2945 8.12955C11.9066 8.38319 11.7438 8.87014 11.9012 9.30607L12.8621 11.9675C13.1881 12.8706 12.1778 13.6695 11.3742 13.1441L8.54727 11.2956C8.21481 11.0782 7.78519 11.0782 7.45273 11.2956L4.62578 13.1441C3.82219 13.6695 2.81189 12.8706 3.13793 11.9675L4.09877 9.30607C4.25615 8.87014 4.09337 8.38319 3.70546 8.12955L1.29871 6.5558C0.466766 6.0118 0.851971 4.71885 1.84599 4.71885H5.05271C5.47406 4.71885 5.85021 4.45473 5.99329 4.05842L7.05942 1.10533Z" fill="#FFC555"/>
</svg>
