<svg width="110" height="64" viewBox="0 0 110 64" fill="none" xmlns="http://www.w3.org/2000/svg">
<path d="M55.9979 60.9023C55.4454 60.9078 54.8966 60.8116 54.379 60.6184V60.0507C54.3857 59.5929 54.2879 59.1397 54.093 58.7254C53.8304 58.2468 53.5108 57.8018 53.1411 57.4C52.9031 57.0692 52.6601 56.7564 52.4262 56.4535C52.1922 56.1507 51.9512 55.8388 51.7122 55.507C51.3951 55.1196 51.1674 54.6671 51.0453 54.1817C50.9353 53.716 50.8713 53.2406 50.8543 52.7624C50.7748 51.4194 51.1437 50.088 51.9032 48.9773C52.5603 48.0294 53.4899 47.3033 54.569 46.8953C55.6374 46.4767 56.7742 46.2594 57.9217 46.2547C58.6221 46.2533 59.3197 46.3417 59.9976 46.5175C60.7521 46.6947 61.4651 47.0161 62.0974 47.4641C63.5723 48.4725 63.9843 50.5175 64.1972 52.3846V53.2361H54.569C54.6821 54.0003 54.841 54.7569 55.045 55.502V55.507C55.157 55.9528 55.2709 56.3396 55.3619 56.6484C55.4269 56.8673 55.4819 57.0562 55.5209 57.2111C55.5993 57.7434 55.6311 58.2815 55.6159 58.8193C55.6077 59.111 55.5596 59.4002 55.4729 59.6789L55.4259 59.8598C55.6712 59.9399 55.9292 59.9738 56.1869 59.9598C57.1617 59.9808 58.1104 59.6441 58.8537 59.0132L58.8787 58.9862C59.4466 58.3596 60.0906 57.6489 59.9146 57.2491C59.8146 57.0352 59.5036 56.9303 58.9487 56.9303V56.0787H64.5682V57.1192C64.2474 57.1553 63.9409 57.2718 63.6771 57.4579C63.4134 57.644 63.2009 57.8936 63.0593 58.1836C62.8376 58.521 62.5768 58.831 62.2824 59.1072C61.6874 59.7154 60.976 60.1978 60.1906 60.5255C59.432 60.8287 58.6237 60.9886 57.8067 60.9972C57.2023 61.0101 56.5977 60.9783 55.9979 60.9023ZM57.3308 47.0853C57.0149 47.0724 56.6997 47.1245 56.4047 47.2383C56.1097 47.3521 55.8413 47.5252 55.6159 47.7469C55.1379 48.1705 54.805 48.7333 54.664 49.3561C54.4767 50.0343 54.3809 50.7345 54.379 51.4381V52.3846H60.2785C60.4202 51.5809 60.4004 50.757 60.2205 49.961C60.0406 49.165 59.7041 48.4127 59.2306 47.7479C58.7893 47.3209 58.2019 47.0779 57.5878 47.0683C57.5018 47.0682 57.416 47.0738 57.3308 47.0853ZM27.6191 60.9023C27.0666 60.9078 26.5179 60.8116 26.0003 60.6184V60.0507C26.0072 59.593 25.9097 59.1398 25.7153 58.7254C25.4527 58.2468 25.1331 57.8018 24.7634 57.4C24.5244 57.0672 24.2804 56.7524 24.0444 56.4485C23.8084 56.1447 23.5714 55.8368 23.3345 55.508C23.0183 55.1201 22.791 54.6678 22.6685 54.1827C22.5585 53.717 22.4946 53.2416 22.4775 52.7634C22.3977 51.4205 22.7663 50.0891 23.5255 48.9783C24.183 48.0305 25.113 47.3045 26.1922 46.8963C27.2606 46.4777 28.3974 46.2604 29.545 46.2557C30.245 46.2545 30.9422 46.3428 31.6198 46.5185C32.3742 46.6958 33.0873 47.0172 33.7196 47.4651C35.1925 48.4715 35.6045 50.5175 35.8195 52.3856V53.2371H26.1902C26.3025 53.994 26.4591 54.7435 26.6592 55.482L26.6662 55.508C26.7782 55.9528 26.8912 56.3356 26.9822 56.6444C27.0472 56.8653 27.1032 57.0552 27.1422 57.2121C27.2227 57.7442 27.2561 58.2824 27.2422 58.8203C27.2342 59.1107 27.1865 59.3985 27.1002 59.6759C27.0842 59.7359 27.0682 59.7978 27.0512 59.8608C27.2968 59.9408 27.5551 59.9747 27.8131 59.9608C28.7879 59.9816 29.7365 59.6448 30.4799 59.0142L30.5059 58.9852C31.0739 58.3586 31.7168 57.6489 31.5398 57.2501C31.4398 57.0362 31.1299 56.9313 30.5749 56.9313V56.0797H36.1894V57.1202C35.8688 57.1565 35.5625 57.2731 35.299 57.4591C35.0354 57.6452 34.823 57.8947 34.6816 58.1846C34.4598 58.522 34.1991 58.832 33.9046 59.1082C33.3075 59.7178 32.5932 60.2006 31.8048 60.5275C31.0486 60.8292 30.2431 60.9885 29.429 60.9972C28.8242 61.0101 28.2193 60.9783 27.6191 60.9023ZM28.953 47.0853C28.6371 47.0722 28.3218 47.1242 28.0268 47.2381C27.7318 47.3519 27.4634 47.5251 27.2382 47.7469C26.7602 48.1705 26.4272 48.7333 26.2862 49.3561C26.098 50.0341 26.0018 50.7344 26.0003 51.4381V52.3846H31.8998C32.0417 51.5809 32.0221 50.757 31.8422 49.9609C31.6623 49.1649 31.3256 48.4126 30.8519 47.7479C30.4109 47.321 29.8238 47.078 29.21 47.0683C29.1241 47.0682 29.0382 47.0738 28.953 47.0853ZM19.8097 60.8073H10.1915V59.1981L12.6683 59.0092V35.634H10.6685C10.2085 35.6272 9.75285 35.7242 9.33558 35.9179C8.87726 36.319 8.54636 36.8454 8.38365 37.4321C7.97752 38.6379 7.65938 39.8715 7.43173 41.1233C7.41873 41.1882 7.40573 41.2542 7.39273 41.3232V41.3302C7.3193 41.7761 7.20516 42.2144 7.05176 42.6395C7.00666 42.7533 6.92778 42.8507 6.82571 42.9184C6.72364 42.9861 6.60328 43.021 6.4808 43.0183C6.33478 43.0169 6.19269 42.9709 6.07364 42.8863C5.95458 42.8018 5.86427 42.6829 5.81485 42.5455C5.69697 42.1133 5.63282 41.6682 5.62387 41.2202C5.62547 40.0916 5.43128 38.9712 5.04992 37.9089C4.75457 37.4736 4.52951 36.9947 4.38297 36.4896C4.23025 36.0643 4.11646 35.6261 4.043 35.1803C4.029 35.1103 4.016 35.0383 4.002 34.9724C3.99186 34.782 4.02039 34.5917 4.08586 34.4127C4.15134 34.2337 4.25241 34.0698 4.38297 33.9309C4.46734 33.8094 4.57948 33.7097 4.71007 33.6402C4.84067 33.5707 4.98596 33.5333 5.13391 33.5311C5.20129 33.531 5.26844 33.5391 5.33389 33.5551C5.62425 33.5727 5.91005 33.6357 6.18083 33.742H6.19183C6.42981 33.79 6.64779 33.8419 6.85877 33.8839C7.06976 33.9259 7.28674 33.9779 7.52472 34.0248C8.15629 34.1056 8.79301 34.139 9.42957 34.1248H20.6677C21.3026 34.1388 21.9376 34.1054 22.5675 34.0248C22.8065 33.9779 23.0235 33.9309 23.2345 33.8839C23.4455 33.8369 23.6614 33.79 23.9004 33.742H23.9114C24.1822 33.6357 24.468 33.5727 24.7584 33.5551C24.946 33.531 25.1366 33.563 25.306 33.6472C25.4755 33.7313 25.6161 33.8638 25.7103 34.0278C25.933 34.3321 26.0651 34.6932 26.0912 35.0693C26.0773 35.1373 26.0633 35.2082 26.0503 35.2802C25.977 35.7227 25.8635 36.1576 25.7113 36.5796C25.4817 37.1009 25.2909 37.6384 25.1403 38.1877C24.8039 39.262 24.6115 40.3762 24.5684 41.5011C24.5684 42.6615 24.2684 43.3002 23.7114 43.3002C23.6002 43.3029 23.49 43.2785 23.3903 43.229C23.2906 43.1796 23.2045 43.1066 23.1395 43.0163C23.0283 42.77 22.9328 42.517 22.8535 42.2587C22.8065 42.1188 22.7595 41.8859 22.6885 41.535C22.6175 41.1842 22.5215 40.7025 22.3775 40.0828C22.2212 39.0897 21.8994 38.1299 21.4256 37.2432C21.1988 36.7376 20.7927 36.3339 20.2857 36.1098C19.7332 35.9246 19.1546 35.8288 18.5718 35.8259H17.239V59.1981H19.8097V60.8073ZM78.8531 60.6204H72.8536V59.7688H73.8965L71.6156 49.64C71.1161 50.3303 70.6705 51.0581 70.2828 51.8169C69.6384 53.1135 69.281 54.5337 69.2348 55.9808C69.2348 56.2646 69.2588 56.5805 69.2828 56.8803C69.3068 57.1802 69.3308 57.496 69.3308 57.7798C69.3788 58.1607 69.4308 58.4485 69.4618 58.6584C69.4918 58.8055 69.5115 58.9544 69.5208 59.1042V60.1447C69.5208 60.3276 69.4318 60.5235 69.2358 60.5235C69.0894 60.5995 68.9242 60.6321 68.7599 60.6174C68.502 60.633 68.2434 60.6012 67.9969 60.5235H66.2821C66.171 60.5262 66.0609 60.5018 65.9614 60.4524C65.8618 60.4029 65.7759 60.3298 65.7111 60.2396C65.5568 59.8821 65.4916 59.4924 65.5211 59.1042C65.5078 58.2372 65.6365 57.3739 65.9021 56.5485C66.1544 55.8098 66.507 55.1093 66.95 54.4665C67.182 54.1207 67.525 53.6669 67.9219 53.1322C68.1759 52.7944 68.4629 52.4116 68.7599 52.0048C69.3535 51.2545 69.8944 50.464 70.3787 49.639C70.6815 49.0869 70.8448 48.4693 70.8547 47.8399C70.8547 47.522 70.4627 47.3611 69.6898 47.3611C69.5958 47.3611 69.5128 47.3611 69.4438 47.3611H69.3308V46.6045H75.2304V47.4561H74.0965L76.6632 59.1981L79.234 47.4641H78.2821V46.6125H83.8047V47.4641H82.4718L85.2336 59.7658H86.6615V60.6164H81.1389V59.7648H82.0908L79.806 49.2612L77.8062 59.7658H78.8541V60.6194L78.8531 60.6204ZM89.3292 60.6204V59.0102H91.895V35.634H89.8552C88.8033 35.634 88.0144 35.7969 87.4194 37.9059L87.4144 37.9279C87.1344 38.9464 86.8464 39.9988 86.5635 41.5031L86.5155 41.697C86.4429 42.0533 86.3312 42.4006 86.1825 42.7324C86.1256 42.8307 86.041 42.91 85.9393 42.9605C85.8376 43.011 85.7232 43.0304 85.6105 43.0163C85.4362 43.0303 85.2628 42.9804 85.1225 42.876C84.9823 42.7715 84.8849 42.6196 84.8486 42.4486C84.7334 41.8239 84.6699 41.1907 84.6586 40.5555C84.5595 39.593 84.3683 38.6421 84.0877 37.716C83.7025 36.8354 83.4148 35.9154 83.2297 34.9724C83.2235 34.7371 83.272 34.5035 83.3712 34.2901C83.4704 34.0766 83.6178 33.889 83.8017 33.742C84.0091 33.552 84.2824 33.4502 84.5636 33.4581C84.6877 33.4979 84.8143 33.5293 84.9426 33.5521C85.072 33.5771 85.1995 33.6104 85.3246 33.652C85.7895 33.745 86.2715 33.8399 86.8484 33.9359H98.8475V35.635H96.5657V44.9053C97.3374 45.8413 98.3151 46.5863 99.4224 47.0822C100.372 47.6482 101.459 47.9428 102.565 47.9338C102.949 47.9406 103.332 47.9071 103.708 47.8339C103.983 47.8119 104.259 47.8614 104.509 47.9775C104.759 48.0936 104.975 48.2724 105.136 48.4965C105.292 49.0128 105.407 49.5405 105.48 50.0747C105.493 50.1507 105.505 50.2237 105.517 50.2956V57.8658C105.549 58.4718 105.484 59.0789 105.327 59.6649C105.289 59.8238 105.219 59.9731 105.12 60.1035C105.022 60.2339 104.897 60.3425 104.755 60.4225C104.459 60.5666 104.131 60.6317 103.802 60.6114L89.3292 60.6204ZM96.5667 59.0122H99.0425C99.5766 59.0348 100.106 58.9033 100.567 58.6334C100.797 58.3996 100.969 58.1148 101.069 57.8022C101.168 57.4897 101.192 57.158 101.139 56.8343V51.3441C101.225 50.8934 101.157 50.4271 100.948 50.0188C100.623 49.646 100.191 49.3816 99.7104 49.2612C98.4987 48.7619 97.422 47.9838 96.5677 46.9903L96.5667 59.0122ZM43.7119 60.6184H37.1424V59.7668C37.2174 59.7668 37.2934 59.7668 37.3714 59.7668C37.4494 59.7668 37.5333 59.7668 37.6133 59.7668C38.2133 59.7668 38.8562 59.6669 38.8562 58.4335V52.4795C38.8562 51.9468 38.8812 51.4121 38.9052 50.8943C38.9292 50.3766 38.9512 49.9138 38.9512 49.4511C39.4062 48.5313 40.0961 47.748 40.9511 47.1802C41.8717 46.6269 42.9246 46.3323 43.9988 46.3276C44.9487 46.325 45.8889 46.5183 46.7606 46.8953C47.4961 47.1702 48.1284 47.666 48.5705 48.3146C48.952 48.9033 49.12 49.605 49.0464 50.3026C49.0464 51.3951 48.4465 53.8209 47.3316 54.3726C46.7754 54.6732 46.1549 54.8354 45.5227 54.8453C45.265 54.8537 45.0076 54.82 44.7608 54.7454C44.4589 54.6599 44.1705 54.5327 43.9038 54.3676C43.7559 54.2801 43.5954 54.216 43.4279 54.1777L41.999 55.9808V58.4415C41.999 59.7409 42.7379 59.7409 43.3319 59.7479C43.4595 59.7449 43.5872 59.7512 43.7139 59.7668V60.6174L43.7119 60.6184ZM42.6659 47.653C42.3824 48.0394 42.2171 48.4998 42.19 48.9783C42.1091 49.6059 42.0757 50.2387 42.09 50.8713V54.7504L43.4239 53.1422C43.532 53.2598 43.6612 53.356 43.8048 53.426C43.9201 53.4941 44.052 53.5287 44.1858 53.526C44.5606 53.4553 44.898 53.2538 45.1377 52.9573C45.462 52.0811 45.5924 51.1451 45.5197 50.2137C45.5322 49.4397 45.4028 48.6701 45.1377 47.9428C45.0345 47.678 44.8497 47.4529 44.6102 47.2998C44.3706 47.1468 44.0886 47.0737 43.8048 47.0912C43.5837 47.0857 43.3645 47.1339 43.1661 47.2317C42.9677 47.3296 42.7961 47.4741 42.6659 47.653ZM65.1052 42.3237H63.5383C63.5403 41.7499 63.6581 41.1825 63.8845 40.6552C64.111 40.128 64.4414 39.6519 64.8562 39.2552C65.7121 38.4371 66.8507 37.9806 68.0349 37.9806C69.2192 37.9806 70.3578 38.4371 71.2137 39.2552C71.6292 39.652 71.9601 40.1286 72.1868 40.6564C72.4134 41.1842 72.531 41.7523 72.5326 42.3267H70.9667C70.9651 41.952 70.8882 41.5815 70.7407 41.2371C70.5931 40.8927 70.3779 40.5814 70.1078 40.3217C69.5487 39.7915 68.8075 39.496 68.0369 39.496C67.2663 39.496 66.5251 39.7915 65.9661 40.3217C65.6958 40.5813 65.4804 40.8925 65.3326 41.237C65.1849 41.5814 65.1079 41.9519 65.1062 42.3267L65.1052 42.3237ZM52.4972 42.3237H50.9293C50.932 41.7499 51.0501 41.1826 51.2767 40.6554C51.5033 40.1283 51.8337 39.6521 52.2482 39.2552C53.1042 38.4366 54.2432 37.9796 55.4279 37.9796C56.6126 37.9796 57.7517 38.4366 58.6077 39.2552C59.0219 39.6528 59.3519 40.1296 59.5779 40.6572C59.804 41.1849 59.9216 41.7526 59.9236 42.3267H58.3557C58.3543 41.9521 58.2778 41.5817 58.1306 41.2373C57.9834 40.8929 57.7685 40.5815 57.4988 40.3217C56.9391 39.7921 56.1976 39.4969 55.4269 39.4969C54.6562 39.4969 53.9148 39.7921 53.3551 40.3217C53.0848 40.5812 52.8695 40.8925 52.7221 41.2369C52.5747 41.5814 52.4982 41.952 52.4972 42.3267V42.3237ZM39.8872 42.3237H38.3213C38.3237 41.75 38.4415 41.1828 38.6677 40.6556C38.894 40.1285 39.224 39.6522 39.6382 39.2552C40.4941 38.4371 41.6327 37.9806 42.8169 37.9806C44.0012 37.9806 45.1398 38.4371 45.9957 39.2552C46.4107 39.6524 46.7414 40.129 46.9682 40.6567C47.195 41.1844 47.3131 41.7523 47.3156 42.3267H45.7477C45.7468 41.9519 45.6703 41.5811 45.5227 41.2366C45.3751 40.8921 45.1595 40.5809 44.8888 40.3217C44.329 39.7918 43.5874 39.4964 42.8164 39.4964C42.0455 39.4964 41.3038 39.7918 40.7441 40.3217C40.4738 40.5812 40.2585 40.8925 40.1111 41.2369C39.9637 41.5814 39.8872 41.952 39.8862 42.3267L39.8872 42.3237ZM34.9265 42.3237H33.7566V36.4956H31.6188V33.662L39.1912 27.0404V23.6601C38.938 23.6015 38.7118 23.4598 38.5486 23.2576C38.3855 23.0554 38.2949 22.8044 38.2913 22.5446C38.2986 22.2367 38.4259 21.9438 38.6461 21.7283C38.8663 21.5129 39.162 21.3919 39.4702 21.3912H39.5262C39.8059 21.3911 40.0763 21.4922 40.2872 21.676C40.498 21.8597 40.6351 22.1137 40.6731 22.3907C40.7106 22.675 40.6399 22.963 40.4751 23.1977C40.3103 23.4324 40.0634 23.5967 39.7832 23.6581V23.805H46.3826V17.2743H42.9989L49.8984 14.4157L55.3889 6.39679C55.0774 6.38637 54.7822 6.25454 54.5666 6.02948C54.351 5.80443 54.232 5.504 54.235 5.1924C54.235 4.87615 54.3607 4.57286 54.5844 4.34925C54.8081 4.12563 55.1115 4 55.4279 4C55.7443 4 56.0477 4.12563 56.2714 4.34925C56.4952 4.57286 56.6208 4.87615 56.6208 5.1924C56.6241 5.50407 56.5052 5.80465 56.2895 6.02976C56.0739 6.25487 55.7786 6.38662 55.4669 6.39679L60.9585 14.4157L67.8579 17.2743H64.4742V23.807H71.0737V23.6601C70.8204 23.6017 70.5941 23.46 70.4309 23.2578C70.2677 23.0555 70.1772 22.8044 70.1738 22.5446C70.201 22.2467 70.3387 21.9698 70.5598 21.7681C70.7809 21.5664 71.0694 21.4546 71.3687 21.4546C71.668 21.4546 71.9565 21.5664 72.1775 21.7681C72.3986 21.9698 72.5363 22.2467 72.5636 22.5446C72.56 22.8044 72.4694 23.0554 72.3062 23.2576C72.1431 23.4598 71.9168 23.6015 71.6636 23.6601V27.0404L79.236 33.662V36.4946H77.0962V42.3217H75.9263V36.4956H59.8496C59.9916 36.3377 60.1566 36.1698 60.3305 35.9958C61.4692 34.9675 62.3231 33.6627 62.8093 32.2078C63.3303 30.3767 62.5654 28.6446 60.4015 26.7585C59.5403 26.0365 58.6389 25.3638 57.7017 24.7435L57.6888 24.7345L57.6258 24.6906C56.8379 24.1985 56.101 23.6293 55.4259 22.9914C54.7515 23.6301 54.0145 24.1993 53.2261 24.6906L53.1631 24.7345L53.1501 24.7435C52.2128 25.3636 51.3114 26.0363 50.4503 26.7585C48.2855 28.6456 47.5206 30.3777 48.0425 32.2078C48.5283 33.6626 49.3822 34.9672 50.5213 35.9948C50.6953 36.1738 50.8593 36.3417 51.0023 36.4946C45.6617 36.4946 40.2031 36.4946 34.9265 36.4946V42.3237ZM64.0762 35.737H78.3091V34.4106H65.4561C65.0295 34.8865 64.5683 35.3292 64.0762 35.737ZM55.4279 20.1758L55.8419 22.0609C55.9229 22.4957 56.8898 23.1603 58.1127 24.0019L58.1287 24.0129L58.2177 24.0739C59.1751 24.7109 60.0961 25.401 60.9765 26.1408C62.7763 27.706 63.6963 29.2273 63.7993 30.7915C63.7956 31.6698 63.6169 32.5385 63.2735 33.347C62.9301 34.1555 62.429 34.8874 61.7994 35.5001C61.7504 35.5571 61.5674 35.736 61.5654 35.738H63.0283C63.0283 35.738 63.2483 35.5751 63.3473 35.4981C65.0972 34.1438 66.0271 32.8524 66.1911 31.5531C66.2343 30.9807 66.1604 30.4054 65.9741 29.8625C65.7878 29.3195 65.4928 28.8201 65.1072 28.3947C63.8357 26.9438 62.409 25.6367 60.8525 24.4967C60.4625 24.1858 60.0526 23.868 59.6526 23.5611C58.0344 22.4718 56.609 21.1206 55.4349 19.5631C55.4315 19.5673 55.4288 19.5721 55.4269 19.5771C55.4248 19.5744 55.4231 19.5714 55.4219 19.5681C54.247 21.1259 52.8205 22.477 51.2013 23.5661C50.8013 23.873 50.3893 24.1908 50.0014 24.5007C48.4449 25.6404 47.0185 26.9475 45.7477 28.3987C45.3622 28.824 45.0673 29.3232 44.8808 29.866C44.6943 30.4088 44.6201 30.9838 44.6628 31.5561C44.8268 32.8554 45.7557 34.1478 47.5076 35.5021C47.6075 35.5811 47.8235 35.741 47.8265 35.742H49.2894C49.2894 35.742 49.2634 35.718 49.2334 35.688C49.1754 35.629 49.0864 35.5411 49.0554 35.5041C48.4258 34.8914 47.9247 34.1595 47.5813 33.351C47.238 32.5425 47.0592 31.6738 47.0556 30.7955C47.1556 29.2313 48.0835 27.71 49.8794 26.1448C50.7624 25.4019 51.6868 24.7095 52.6481 24.0709L52.7251 24.0159L52.7411 24.0049C53.964 23.1633 54.93 22.4977 55.012 22.0639L55.4259 20.1788L55.4279 20.1758ZM32.5437 35.738H46.7776C46.2859 35.33 45.8251 34.8864 45.3987 34.4106H32.5447L32.5437 35.738ZM64.5412 26.3537L65.2271 27.0424H65.4851V24.6156H64.5412V26.3537ZM45.3717 24.6216V27.0424H45.6307L46.3167 26.3537V24.6156H45.3727L45.3717 24.6216ZM69.9698 24.6216V27.0414H70.9107V24.6156H69.9708L69.9698 24.6216ZM68.1409 27.0414H69.0818V24.6156H68.1409V27.0414ZM66.3671 24.6216V27.0414H67.309V24.6156H66.3681L66.3671 24.6216ZM43.5449 27.0414H44.4858V24.6156H43.5449V27.0414ZM41.768 27.0414H42.7099V24.6156H41.768V27.0414ZM39.9392 27.0414H40.8791V24.6156H39.9392V27.0414ZM62.6564 24.7365L63.5993 25.5181V24.6186H62.6564V24.7365ZM47.2576 24.6206V25.5201L48.2005 24.7385V24.6156H47.2586L47.2576 24.6206ZM55.4309 17.952L55.7869 18.6756V18.6816C56.4868 20.1169 58.2307 21.4862 59.9216 22.8105C60.2215 23.0484 60.5345 23.2923 60.8325 23.5301H62.9073V17.6191H47.9495V23.5281H50.0244C50.3243 23.2903 50.6323 23.0474 50.9313 22.8125C52.6221 21.4872 54.371 20.1139 55.07 18.6796V18.6736L55.4259 17.95L55.4309 17.952ZM102.094 37.0533C101.71 36.8133 101.384 36.4898 101.142 36.1068C100.981 35.8207 100.877 35.5056 100.838 35.1795C100.798 34.8534 100.823 34.5227 100.912 34.2064C101 33.89 101.15 33.5941 101.353 33.3357C101.556 33.0774 101.808 32.8615 102.094 32.7005C102.483 32.5115 102.911 32.4143 103.343 32.4167C103.799 32.4193 104.249 32.5159 104.665 32.7005C105.049 32.941 105.374 33.2644 105.617 33.647C105.884 33.9997 106.019 34.4347 105.998 34.8764C105.973 35.3114 105.842 35.7337 105.617 36.1068C105.401 36.5101 105.07 36.8398 104.665 37.0533C104.262 37.2816 103.807 37.404 103.343 37.4091C102.902 37.4098 102.469 37.2865 102.094 37.0533ZM102.379 33.1733C102.081 33.3759 101.823 33.6326 101.618 33.9299C101.432 34.2279 101.333 34.5724 101.333 34.9239C101.333 35.2754 101.432 35.6199 101.618 35.9179C101.796 36.2365 102.059 36.4988 102.379 36.6745C102.666 36.8622 103.002 36.961 103.344 36.9584C103.708 36.9549 104.064 36.8571 104.379 36.6745C104.678 36.4724 104.937 36.2157 105.141 35.9179C105.327 35.6197 105.426 35.2753 105.426 34.9239C105.426 34.5724 105.327 34.228 105.141 33.9299C104.963 33.6111 104.699 33.3489 104.379 33.1733C104.064 32.991 103.708 32.8932 103.344 32.8894C103 32.8866 102.663 32.9858 102.375 33.1743L102.379 33.1733ZM102.759 36.2027H102.284V33.5521H103.713C103.848 33.5395 103.983 33.5749 104.094 33.652L104.379 33.9359C104.456 34.0464 104.492 34.1806 104.479 34.3147C104.476 34.4902 104.408 34.6584 104.289 34.7875C104.217 34.8703 104.13 34.9381 104.032 34.9868C103.933 35.0355 103.826 35.0643 103.717 35.0713C103.736 35.0718 103.754 35.0763 103.77 35.0846C103.786 35.0929 103.801 35.1047 103.812 35.1193C103.824 35.1343 103.839 35.1464 103.857 35.1545C103.874 35.1627 103.893 35.1667 103.912 35.1663C103.912 35.1845 103.917 35.2025 103.925 35.2187C103.934 35.235 103.946 35.2492 103.96 35.2602C103.975 35.2714 103.986 35.2856 103.995 35.3018C104.003 35.3181 104.007 35.3359 104.008 35.3542C104.084 35.4398 104.148 35.5353 104.199 35.638L104.483 36.2047H103.817L103.627 35.8259C103.533 35.6164 103.405 35.4244 103.246 35.2582C103.134 35.1835 102.999 35.1502 102.864 35.1643H102.764V36.2067L102.759 36.2027ZM102.759 34.5926H102.95C103.01 34.6216 103.075 34.636 103.141 34.6345C103.205 34.6325 103.268 34.6255 103.331 34.6135C103.394 34.6008 103.458 34.5935 103.522 34.5916C103.616 34.5916 103.713 34.5916 103.713 34.4976C103.732 34.4991 103.75 34.4941 103.765 34.4833C103.781 34.4725 103.791 34.4567 103.796 34.4386C103.806 34.3961 103.81 34.3524 103.808 34.3087C103.808 34.2896 103.804 34.2707 103.796 34.2533C103.788 34.236 103.776 34.2208 103.761 34.2087C103.756 34.1729 103.739 34.1397 103.713 34.1141C103.687 34.0886 103.654 34.072 103.618 34.0668C103.606 34.0517 103.591 34.0395 103.574 34.0311C103.556 34.0228 103.537 34.0186 103.518 34.0188H102.756L102.759 34.5926ZM55.4239 33.9109L54.914 31.3242L53.3941 32.1308L54.294 30.8055L51.8322 30.3157L54.362 29.816L53.7341 28.5606L54.927 29.2303L55.4209 26.7225L55.9339 29.3212L57.4518 28.5106L56.5518 29.835L59.0136 30.3257L56.4838 30.8255L57.1118 32.0828L55.9179 31.4132L55.4259 33.9109H55.4239Z" fill="#930338"/>
</svg>
