<svg width="70" height="70" viewBox="0 0 70 70" fill="none" xmlns="http://www.w3.org/2000/svg">
<path d="M1.09375 16.6523C0.833984 16.7754 0.478516 17.0898 0.314453 17.3496L0 17.8145V30.625V43.4355L0.300781 43.8867C0.765625 44.543 1.4082 44.8438 2.41992 44.8438H3.28125V46.334C3.28125 47.6465 3.32227 47.8652 3.5957 48.2754C4.08789 49.0273 4.63477 49.2188 6.26172 49.2188C7.47852 49.2188 7.66992 49.2461 7.73828 49.4512C8.57227 51.9258 10.3496 53.416 12.6465 53.5664C14.3555 53.6758 15.6543 53.2109 16.8984 52.0625L17.4863 51.5293L18.0469 52.0898C19.5918 53.6348 22.3125 54.0449 24.3496 53.0332C25.5117 52.459 26.8379 50.8184 27.125 49.6016L27.207 49.2188H39.9082H52.5957L52.8965 50.0391C53.9766 53.0059 57.4355 54.4414 60.293 53.1016C61.9609 52.3223 63.2734 50.5313 63.4102 48.8496L63.4648 48.125H65.9531C68.7422 48.125 69.125 48.0293 69.6855 47.1816C70 46.7168 70 46.7031 70 41.4668C70 37.1055 69.959 36.1348 69.7949 35.7246C69.6855 35.4512 69.166 34.7949 68.6602 34.2617L67.7441 33.2773L66.3906 29.2031L65.0508 25.1289L65.3379 24.8281C65.7344 24.4043 65.7207 23.6523 65.3105 23.2695C64.9961 22.9688 64.9414 22.9688 59.8418 22.9688H54.7012L54.6602 20.3301C54.6191 17.8691 54.6055 17.6777 54.3184 17.2813C53.6484 16.3379 55.8496 16.4063 27.3164 16.4063C3.07617 16.4063 1.54492 16.4199 1.09375 16.6523ZM52.5 30.625V42.6563H51.3379C50.0117 42.6563 49.5742 42.8066 49.3418 43.3535C49.1504 43.8184 49.3691 44.502 49.7793 44.707C49.916 44.7891 50.832 44.8438 51.8164 44.8438H53.6074L53.2793 45.418C53.0879 45.7461 52.8691 46.2383 52.7734 46.5117L52.6094 47.0313H39.9219H27.2344L27.0703 46.5117C26.9746 46.2383 26.7559 45.7461 26.5918 45.418L26.2637 44.8438H36.3398H46.4023L46.7168 44.543C47.1133 44.1738 47.127 43.4902 46.7715 43.0527L46.5117 42.7246L24.2812 42.6836L2.05078 42.6563V30.625V18.5938H27.2754H52.5V30.625ZM63.0547 26.25L63.4102 27.3438H60.5117C57.8047 27.3438 57.5859 27.3574 57.3125 27.6172C56.9023 28.0137 56.8477 28.4648 56.9023 31.6641C56.9434 34.8359 57.0117 35.0957 57.8594 35.7109C58.3105 36.0254 58.3516 36.0254 62.8359 36.0664C68.2637 36.1074 67.8398 35.9434 67.9219 38.0215L67.9766 39.375H67.2246C66.1445 39.375 65.6797 39.8125 65.748 40.7695C65.7754 41.2617 66.3086 41.5625 67.1562 41.5625H67.9492V43.75V45.9375H65.502H63.0547L62.7129 45.3496C62.2617 44.584 61.209 43.6133 60.4297 43.2305C59.5273 42.793 58.5703 42.6563 56.5195 42.6563H54.6875V33.9063V25.1563H58.6934H62.6992L63.0547 26.25ZM64.8867 31.7461L65.5977 33.9063H62.3301H59.0625V31.7188V29.5313L61.6191 29.5586L64.1621 29.5996L64.8867 31.7461ZM8.61328 44.8711C8.61328 44.8984 8.42188 45.2813 8.20312 45.7188C7.9707 46.1563 7.79297 46.6348 7.79297 46.7715C7.79297 47.0039 7.66992 47.0313 6.63086 47.0313H5.46875V45.9375V44.8438H7.04102C7.90234 44.8438 8.61328 44.8574 8.61328 44.8711ZM14.041 45.0488C15.3535 45.4453 16.3105 46.7305 16.3105 48.125C16.3105 51.3926 12.0449 52.623 10.3359 49.8477C9.85742 49.0957 9.70703 47.9199 9.98047 47.0996C10.1855 46.4844 10.9512 45.5957 11.5391 45.2949C12.4824 44.8027 13.043 44.748 14.041 45.0488ZM22.8184 45.0625C23.8301 45.3633 24.6504 46.2109 24.9648 47.2363C25.8945 50.4492 21.9297 52.8008 19.5645 50.4355C17.7871 48.6582 18.5801 45.7188 21.0547 44.9668C21.6016 44.8027 22.0527 44.8301 22.8184 45.0625ZM59.4316 45.2402C60.1289 45.582 60.8945 46.4434 61.1133 47.0996C61.209 47.373 61.25 47.9609 61.2227 48.3984C61.0312 51.0781 57.873 52.3359 55.8223 50.5449C53.9355 48.8906 54.6875 45.7461 57.1621 44.9941C57.791 44.8027 58.8027 44.9121 59.4316 45.2402Z" fill="black"/>
<path d="M1.09375 16.6523C0.833984 16.7754 0.478516 17.0898 0.314453 17.3496L0 17.8145V30.625V43.4355L0.300781 43.8867C0.765625 44.543 1.4082 44.8438 2.41992 44.8438H3.28125V46.334C3.28125 47.6465 3.32227 47.8652 3.5957 48.2754C4.08789 49.0273 4.63477 49.2188 6.26172 49.2188C7.47852 49.2188 7.66992 49.2461 7.73828 49.4512C8.57227 51.9258 10.3496 53.416 12.6465 53.5664C14.3555 53.6758 15.6543 53.2109 16.8984 52.0625L17.4863 51.5293L18.0469 52.0898C19.5918 53.6348 22.3125 54.0449 24.3496 53.0332C25.5117 52.459 26.8379 50.8184 27.125 49.6016L27.207 49.2188H39.9082H52.5957L52.8965 50.0391C53.9766 53.0059 57.4355 54.4414 60.293 53.1016C61.9609 52.3223 63.2734 50.5313 63.4102 48.8496L63.4648 48.125H65.9531C68.7422 48.125 69.125 48.0293 69.6855 47.1816C70 46.7168 70 46.7031 70 41.4668C70 37.1055 69.959 36.1348 69.7949 35.7246C69.6855 35.4512 69.166 34.7949 68.6602 34.2617L67.7441 33.2773L66.3906 29.2031L65.0508 25.1289L65.3379 24.8281C65.7344 24.4043 65.7207 23.6523 65.3105 23.2695C64.9961 22.9688 64.9414 22.9688 59.8418 22.9688H54.7012L54.6602 20.3301C54.6191 17.8691 54.6055 17.6777 54.3184 17.2813C53.6484 16.3379 55.8496 16.4063 27.3164 16.4063C3.07617 16.4063 1.54492 16.4199 1.09375 16.6523ZM52.5 30.625V42.6563H51.3379C50.0117 42.6563 49.5742 42.8066 49.3418 43.3535C49.1504 43.8184 49.3691 44.502 49.7793 44.707C49.916 44.7891 50.832 44.8438 51.8164 44.8438H53.6074L53.2793 45.418C53.0879 45.7461 52.8691 46.2383 52.7734 46.5117L52.6094 47.0313H39.9219H27.2344L27.0703 46.5117C26.9746 46.2383 26.7559 45.7461 26.5918 45.418L26.2637 44.8438H36.3398H46.4023L46.7168 44.543C47.1133 44.1738 47.127 43.4902 46.7715 43.0527L46.5117 42.7246L24.2812 42.6836L2.05078 42.6563V30.625V18.5938H27.2754H52.5V30.625ZM63.0547 26.25L63.4102 27.3438H60.5117C57.8047 27.3438 57.5859 27.3574 57.3125 27.6172C56.9023 28.0137 56.8477 28.4648 56.9023 31.6641C56.9434 34.8359 57.0117 35.0957 57.8594 35.7109C58.3105 36.0254 58.3516 36.0254 62.8359 36.0664C68.2637 36.1074 67.8398 35.9434 67.9219 38.0215L67.9766 39.375H67.2246C66.1445 39.375 65.6797 39.8125 65.748 40.7695C65.7754 41.2617 66.3086 41.5625 67.1562 41.5625H67.9492V43.75V45.9375H65.502H63.0547L62.7129 45.3496C62.2617 44.584 61.209 43.6133 60.4297 43.2305C59.5273 42.793 58.5703 42.6563 56.5195 42.6563H54.6875V33.9063V25.1563H58.6934H62.6992L63.0547 26.25ZM64.8867 31.7461L65.5977 33.9063H62.3301H59.0625V31.7188V29.5313L61.6191 29.5586L64.1621 29.5996L64.8867 31.7461ZM8.61328 44.8711C8.61328 44.8984 8.42188 45.2813 8.20312 45.7188C7.9707 46.1563 7.79297 46.6348 7.79297 46.7715C7.79297 47.0039 7.66992 47.0313 6.63086 47.0313H5.46875V45.9375V44.8438H7.04102C7.90234 44.8438 8.61328 44.8574 8.61328 44.8711ZM14.041 45.0488C15.3535 45.4453 16.3105 46.7305 16.3105 48.125C16.3105 51.3926 12.0449 52.623 10.3359 49.8477C9.85742 49.0957 9.70703 47.9199 9.98047 47.0996C10.1855 46.4844 10.9512 45.5957 11.5391 45.2949C12.4824 44.8027 13.043 44.748 14.041 45.0488ZM22.8184 45.0625C23.8301 45.3633 24.6504 46.2109 24.9648 47.2363C25.8945 50.4492 21.9297 52.8008 19.5645 50.4355C17.7871 48.6582 18.5801 45.7188 21.0547 44.9668C21.6016 44.8027 22.0527 44.8301 22.8184 45.0625ZM59.4316 45.2402C60.1289 45.582 60.8945 46.4434 61.1133 47.0996C61.209 47.373 61.25 47.9609 61.2227 48.3984C61.0312 51.0781 57.873 52.3359 55.8223 50.5449C53.9355 48.8906 54.6875 45.7461 57.1621 44.9941C57.791 44.8027 58.8027 44.9121 59.4316 45.2402Z" fill="url(#paint0_linear_20_79)"/>
<path d="M4.73047 38.5684C4.45703 38.7871 4.375 38.9648 4.375 39.375C4.375 39.7852 4.45703 39.9629 4.73047 40.1816L5.09961 40.4688H27.3438H49.5879L49.957 40.1816C50.4355 39.7988 50.4492 39.0879 49.9707 38.623L49.6426 38.2812H27.3711H5.09961L4.73047 38.5684Z" fill="black"/>
<path d="M4.73047 38.5684C4.45703 38.7871 4.375 38.9648 4.375 39.375C4.375 39.7852 4.45703 39.9629 4.73047 40.1816L5.09961 40.4688H27.3438H49.5879L49.957 40.1816C50.4355 39.7988 50.4492 39.0879 49.9707 38.623L49.6426 38.2812H27.3711H5.09961L4.73047 38.5684Z" fill="url(#paint1_linear_20_79)"/>
<path d="M12.6201 47.168C11.9775 47.4277 11.8271 48.4258 12.3466 48.918C12.8935 49.4238 13.6865 49.3008 14.0283 48.6445C14.3017 48.125 14.083 47.4141 13.5908 47.1817C13.1943 47.0039 13.0302 47.0039 12.6201 47.168Z" fill="black"/>
<path d="M12.6201 47.168C11.9775 47.4277 11.8271 48.4258 12.3466 48.918C12.8935 49.4238 13.6865 49.3008 14.0283 48.6445C14.3017 48.125 14.083 47.4141 13.5908 47.1817C13.1943 47.0039 13.0302 47.0039 12.6201 47.168Z" fill="url(#paint2_linear_20_79)"/>
<path d="M21.3701 47.168C20.7275 47.4277 20.5771 48.4258 21.0966 48.918C21.4658 49.2598 22.0947 49.3145 22.5185 49.0137C23.1201 48.5899 23.0244 47.4961 22.3408 47.1817C21.9443 47.0039 21.7802 47.0039 21.3701 47.168Z" fill="black"/>
<path d="M21.3701 47.168C20.7275 47.4277 20.5771 48.4258 21.0966 48.918C21.4658 49.2598 22.0947 49.3145 22.5185 49.0137C23.1201 48.5899 23.0244 47.4961 22.3408 47.1817C21.9443 47.0039 21.7802 47.0039 21.3701 47.168Z" fill="url(#paint3_linear_20_79)"/>
<path d="M57.5591 47.209C57.0532 47.4688 56.8481 47.9883 57.0258 48.5215C57.436 49.6699 59.063 49.3418 59.063 48.0977C59.063 47.3184 58.2563 46.8399 57.5591 47.209Z" fill="black"/>
<path d="M57.5591 47.209C57.0532 47.4688 56.8481 47.9883 57.0258 48.5215C57.436 49.6699 59.063 49.3418 59.063 48.0977C59.063 47.3184 58.2563 46.8399 57.5591 47.209Z" fill="url(#paint4_linear_20_79)"/>
<defs>
<linearGradient id="paint0_linear_20_79" x1="0" y1="35.0055" x2="70" y2="35.0055" gradientUnits="userSpaceOnUse">
<stop stop-color="#34913B"/>
<stop offset="1" stop-color="#4BA852"/>
</linearGradient>
<linearGradient id="paint1_linear_20_79" x1="4.375" y1="39.375" x2="50.3228" y2="39.375" gradientUnits="userSpaceOnUse">
<stop stop-color="#34913B"/>
<stop offset="1" stop-color="#4BA852"/>
</linearGradient>
<linearGradient id="paint2_linear_20_79" x1="12.0332" y1="48.1381" x2="14.1474" y2="48.1381" gradientUnits="userSpaceOnUse">
<stop stop-color="#34913B"/>
<stop offset="1" stop-color="#4BA852"/>
</linearGradient>
<linearGradient id="paint3_linear_20_79" x1="20.7832" y1="48.1283" x2="22.917" y2="48.1283" gradientUnits="userSpaceOnUse">
<stop stop-color="#34913B"/>
<stop offset="1" stop-color="#4BA852"/>
</linearGradient>
<linearGradient id="paint4_linear_20_79" x1="56.9629" y1="48.1554" x2="59.063" y2="48.1554" gradientUnits="userSpaceOnUse">
<stop stop-color="#34913B"/>
<stop offset="1" stop-color="#4BA852"/>
</linearGradient>
</defs>
</svg>
