<svg width="21" height="21" viewBox="0 0 21 21" fill="none" xmlns="http://www.w3.org/2000/svg">
<path d="M10.4974 2.16406C8.31406 2.16406 6.53906 3.93906 6.53906 6.1224C6.53906 8.26406 8.21406 9.9974 10.3974 10.0724C10.4641 10.0641 10.5307 10.0641 10.5807 10.0724C10.5974 10.0724 10.6057 10.0724 10.6224 10.0724C10.6307 10.0724 10.6307 10.0724 10.6391 10.0724C12.7724 9.9974 14.4474 8.26406 14.4557 6.1224C14.4557 3.93906 12.6807 2.16406 10.4974 2.16406Z" fill="white"/>
<path d="M14.7328 12.2895C12.4078 10.7395 8.61615 10.7395 6.27448 12.2895C5.21615 12.9978 4.63281 13.9561 4.63281 14.9811C4.63281 16.0061 5.21615 16.9561 6.26615 17.6561C7.43281 18.4395 8.96615 18.8311 10.4995 18.8311C12.0328 18.8311 13.5661 18.4395 14.7328 17.6561C15.7828 16.9478 16.3661 15.9978 16.3661 14.9645C16.3578 13.9395 15.7828 12.9895 14.7328 12.2895Z" fill="white"/>
</svg>
